<?xml version="1.0" standalone="no"?>
<!DOCTYPE svg PUBLIC "-//W3C//DTD SVG 20010904//EN"
 "http://www.w3.org/TR/2001/REC-SVG-20010904/DTD/svg10.dtd">
<svg version="1.0" xmlns="http://www.w3.org/2000/svg"
 width="607.000000pt" height="525.000000pt" viewBox="0 0 607.000000 525.000000"
 preserveAspectRatio="xMidYMid meet">

<g transform="translate(0.000000,525.000000) scale(0.100000,-0.100000)"
fill="#fff" stroke="none">
<path d="M1511 5058 c-61 -101 -425 -702 -810 -1337 l-698 -1155 16 -28 16
-28 373 0 372 0 0 110 0 110 -209 2 -208 3 510 843 c280 464 511 841 513 840
2 -3 -930 -4312 -941 -4349 -4 -12 12 -22 63 -42 37 -15 74 -27 82 -27 9 0
339 536 823 1336 l807 1335 -17 30 -17 29 -371 -2 -370 -3 -3 -107 -3 -108
211 0 c115 0 210 -2 210 -4 0 -6 -1010 -1678 -1020 -1689 -10 -11 -57 -229
480 2242 253 1168 459 2125 458 2126 -9 6 -140 55 -147 55 -6 0 -60 -82 -120
-182z"/>
<path d="M5425 3313 c-57 -8 -139 -35 -204 -68 -232 -118 -371 -354 -371 -624
0 -130 21 -218 76 -331 86 -174 244 -303 430 -350 199 -51 453 4 582 127 41
39 44 45 39 80 -7 44 -38 73 -76 73 -14 0 -53 -18 -86 -40 -315 -211 -702 -47
-781 330 -46 220 54 457 243 573 82 52 157 69 273 65 92 -3 113 -7 170 -34 36
-17 82 -45 104 -63 73 -58 156 -31 156 51 0 31 -7 43 -47 77 -124 106 -323
159 -508 134z"/>
<path d="M2656 3275 l-26 -24 0 -631 0 -631 25 -24 c34 -35 93 -34 126 1 24
25 24 28 27 258 l3 233 59 58 c37 37 63 56 69 50 5 -6 106 -143 226 -305 119
-162 224 -301 233 -307 9 -7 33 -13 53 -13 29 0 42 6 58 26 45 57 40 67 -215
414 l-237 322 237 237 c197 198 237 242 242 271 8 50 -24 90 -74 90 -34 0 -53
-17 -344 -307 l-307 -307 -3 283 -3 283 -28 24 c-37 32 -86 32 -121 -1z"/>
<path d="M3769 3271 l-29 -29 0 -627 0 -626 25 -24 24 -25 436 0 436 0 24 25
c16 15 25 36 25 55 0 19 -9 40 -25 55 l-24 25 -371 0 -370 0 0 220 0 219 276
3 276 3 19 24 c10 13 19 36 19 51 0 85 -17 90 -330 90 l-260 0 0 210 0 209
371 3 371 3 25 29 c20 24 24 36 19 65 -11 73 3 71 -478 71 l-430 0 -29 -29z"/>
<path d="M2630 1285 l0 -196 103 3 c125 4 133 22 12 26 l-85 3 0 79 0 80 75 0
c60 0 75 3 75 15 0 12 -15 15 -75 15 l-75 0 0 70 0 70 85 0 c69 0 85 3 85 15
0 12 -18 15 -100 15 l-100 0 0 -195z"/>
<path d="M3010 1469 c-68 -27 -104 -89 -104 -184 -1 -121 48 -185 146 -192 60
-5 121 20 126 50 3 17 1 17 -37 -2 -72 -37 -145 -20 -178 42 -23 43 -23 150 0
197 33 68 110 89 176 49 35 -21 47 -20 37 6 -13 36 -111 56 -166 34z"/>
<path d="M3448 1451 c-27 -14 -48 -32 -48 -38 0 -18 10 -16 45 7 54 36 55 34
55 -140 l0 -160 -50 0 c-38 0 -50 -4 -50 -15 0 -12 19 -15 111 -15 84 0 110 3
107 13 -3 6 -23 13 -46 15 l-42 3 0 180 c0 204 3 198 -82 150z"/>
<path d="M3704 1467 c-3 -8 -4 -47 -2 -88 l3 -74 67 -6 c83 -7 108 -26 108
-80 0 -51 -8 -67 -41 -84 -35 -19 -86 -19 -119 0 -32 19 -40 18 -40 -1 0 -18
58 -44 99 -44 48 0 105 28 124 59 22 37 22 100 1 130 -21 30 -72 51 -124 51
l-40 0 0 60 0 60 80 0 c64 0 80 3 80 15 0 21 -188 22 -196 2z"/>
<path d="M4107 1428 c-95 -151 -127 -206 -127 -221 0 -15 13 -17 90 -17 l90 0
0 -50 c0 -38 4 -50 15 -50 11 0 15 12 15 50 0 49 1 50 30 50 20 0 30 5 30 15
0 10 -10 15 -30 15 l-30 0 0 130 0 130 -25 0 c-19 0 -32 -12 -58 -52z m53 -98
l0 -110 -70 0 c-38 0 -70 2 -70 4 0 8 131 216 136 216 2 0 4 -49 4 -110z"/>
<path d="M4417 1428 c-95 -151 -127 -206 -127 -221 0 -15 13 -17 90 -17 l90 0
0 -50 c0 -38 4 -50 15 -50 11 0 15 12 15 50 0 49 1 50 30 50 20 0 30 5 30 15
0 10 -10 15 -30 15 l-30 0 0 130 0 130 -25 0 c-19 0 -32 -12 -58 -52z m53 -98
l0 -110 -70 0 c-38 0 -70 2 -70 4 0 8 131 216 136 216 2 0 4 -49 4 -110z"/>
<path d="M4700 1460 c-54 -28 -73 -71 -78 -171 -5 -106 8 -153 52 -180 94 -57
211 27 190 137 -10 52 -46 79 -107 79 -29 0 -62 -4 -74 -8 -20 -7 -23 -5 -23
20 0 38 34 91 68 104 15 6 48 8 75 4 49 -6 63 6 28 25 -30 16 -92 11 -131 -10z
m101 -179 c19 -15 24 -29 24 -66 0 -39 -5 -51 -28 -71 -66 -57 -131 -17 -138
86 -3 40 -1 45 26 56 44 19 89 17 116 -5z"/>
</g>
</svg>
