<?xml version="1.0" standalone="no"?>
<!DOCTYPE svg PUBLIC "-//W3C//DTD SVG 20010904//EN"
 "http://www.w3.org/TR/2001/REC-SVG-20010904/DTD/svg10.dtd">
<svg version="1.0" xmlns="http://www.w3.org/2000/svg"
 width="808.000000pt" height="1108.000000pt" viewBox="0 0 808.000000 1108.000000"
 preserveAspectRatio="xMidYMid meet">

<g transform="translate(0.000000,1108.000000) scale(0.100000,-0.100000)"
fill="#fede40" stroke="none">
<path d="M4382 7913 c-76 -126 -245 -403 -374 -618 -129 -214 -415 -687 -635
-1050 -509 -840 -456 -747 -442 -779 l12 -26 316 0 c174 0 332 -3 352 -6 56
-9 69 11 69 105 0 51 -4 82 -13 89 -8 7 -80 10 -196 9 -154 -2 -185 0 -193 13
-7 11 33 85 158 290 164 271 502 832 654 1085 43 72 94 162 115 200 20 39 47
81 60 94 l24 24 6 -34 c4 -24 -1 -58 -19 -113 -14 -43 -26 -88 -26 -99 0 -11
-4 -36 -10 -56 -21 -78 -163 -716 -244 -1096 -8 -38 -38 -176 -66 -305 -28
-129 -96 -442 -150 -695 -55 -253 -151 -698 -215 -990 -194 -890 -206 -946
-200 -965 6 -20 104 -64 130 -58 9 2 79 107 159 238 312 517 1055 1746 1161
1920 217 357 285 476 285 495 -1 49 5 48 -375 49 -327 1 -357 0 -366 -16 -12
-23 -11 -120 1 -154 l10 -27 171 8 c193 8 234 1 219 -39 -4 -12 -33 -60 -63
-107 -93 -143 -807 -1329 -855 -1419 -24 -47 -56 -98 -70 -113 l-26 -28 -9 23
c-5 16 -2 44 12 88 11 36 25 90 30 120 6 30 26 125 46 210 35 152 72 320 96
430 6 30 22 100 34 155 13 55 35 156 50 225 14 69 37 175 50 235 33 150 312
1438 336 1550 11 50 37 171 59 270 22 99 55 257 75 350 35 168 57 268 76 355
21 92 29 127 50 229 l22 105 -23 18 c-22 18 -81 38 -112 38 -11 0 -64 -78
-156 -227z"/>
</g>
</svg>
