<?xml version="1.0" standalone="no"?>
<!DOCTYPE svg PUBLIC "-//W3C//DTD SVG 20010904//EN"
 "http://www.w3.org/TR/2001/REC-SVG-20010904/DTD/svg10.dtd">
<svg version="1.0" xmlns="http://www.w3.org/2000/svg"
 width="2471.000000pt" height="1108.000000pt" viewBox="0 0 2471.000000 1108.000000"
 preserveAspectRatio="xMidYMid meet">

<g transform="translate(0.000000,1108.000000) scale(0.100000,-0.100000)"
fill="#fff" stroke="none">
<path d="M4441 7978 c-61 -101 -425 -702 -810 -1337 l-698 -1155 16 -28 16
-28 373 0 372 0 0 110 0 110 -209 2 -208 3 510 843 c280 464 511 841 513 840
2 -3 -930 -4312 -941 -4349 -4 -12 13 -23 72 -46 43 -17 81 -28 84 -25 4 4
370 607 813 1340 l806 1333 -17 30 -17 29 -371 -2 -370 -3 -3 -107 -3 -108
211 0 c115 0 210 -2 210 -4 0 -6 -1010 -1678 -1020 -1689 -10 -11 -57 -229
480 2242 253 1168 459 2125 458 2126 -9 6 -140 55 -147 55 -6 0 -60 -82 -120
-182z"/>
<path d="M8355 6233 c-57 -8 -139 -35 -204 -68 -232 -118 -371 -354 -371 -624
0 -130 21 -218 76 -331 86 -174 244 -303 430 -350 199 -51 453 4 582 127 41
39 44 45 39 80 -7 44 -38 73 -76 73 -14 0 -53 -18 -86 -40 -315 -211 -702 -47
-781 330 -46 220 54 457 243 573 82 52 157 69 273 65 92 -3 113 -7 170 -34 36
-17 82 -45 104 -63 73 -58 156 -31 156 51 0 31 -7 43 -47 77 -124 106 -323
159 -508 134z"/>
<path d="M5586 6195 l-26 -24 0 -631 0 -631 25 -24 c34 -35 93 -34 126 1 24
25 24 28 27 258 l3 233 59 58 c37 37 63 56 69 50 5 -6 106 -143 226 -305 119
-162 224 -301 233 -307 9 -7 33 -13 53 -13 29 0 42 6 58 26 45 57 40 67 -215
414 l-237 322 237 237 c197 198 237 242 242 271 8 50 -24 90 -74 90 -34 0 -53
-17 -344 -307 l-307 -307 -3 283 -3 283 -28 24 c-37 32 -86 32 -121 -1z"/>
<path d="M6699 6191 l-29 -29 0 -627 0 -626 25 -24 24 -25 436 0 436 0 24 25
c16 15 25 36 25 55 0 19 -9 40 -25 55 l-24 25 -371 0 -370 0 0 220 0 219 276
3 276 3 19 24 c10 13 19 36 19 51 0 85 -17 90 -330 90 l-260 0 0 210 0 209
371 3 371 3 25 29 c20 24 24 36 19 65 -11 73 3 71 -478 71 l-430 0 -29 -29z"/>
<path d="M11020 4060 c0 -283 0 -290 20 -290 20 0 20 7 20 290 0 283 0 290
-20 290 -20 0 -20 -7 -20 -290z"/>
<path d="M13454 4335 c-8 -21 2 -45 19 -45 21 0 38 25 31 44 -8 20 -43 21 -50
1z"/>
<path d="M15090 4060 c0 -283 0 -290 20 -290 20 0 20 7 20 290 0 283 0 290
-20 290 -20 0 -20 -7 -20 -290z"/>
<path d="M20414 4335 c-8 -21 2 -45 19 -45 21 0 38 25 31 44 -8 20 -43 21 -50
1z"/>
<path d="M15967 4319 c-84 -13 -162 -81 -193 -166 -21 -59 -17 -180 7 -233 25
-55 71 -105 124 -133 31 -17 58 -22 120 -22 70 0 87 4 133 29 33 19 63 46 82
74 35 52 37 62 13 62 -10 0 -30 -20 -44 -44 -43 -71 -156 -111 -245 -87 -131
35 -202 179 -160 324 31 108 109 167 218 167 81 0 141 -29 183 -87 16 -23 38
-42 48 -42 21 -1 21 2 3 38 -19 35 -80 90 -120 106 -42 17 -111 23 -169 14z"/>
<path d="M5560 4045 c0 -238 2 -275 15 -275 13 0 15 21 15 127 l0 128 129
-129 c87 -87 134 -127 146 -124 14 2 -14 36 -113 139 l-131 135 135 135 c116
115 131 134 112 138 -18 2 -49 -24 -150 -130 l-127 -134 -1 133 c0 110 -2 132
-15 132 -13 0 -15 -37 -15 -275z"/>
<path d="M10480 4045 l0 -275 140 0 c118 0 140 2 140 15 0 13 -20 15 -120 15
l-120 0 0 115 0 115 110 0 c91 0 110 3 110 15 0 12 -19 15 -110 15 l-110 0 0
115 0 115 120 0 c100 0 120 3 120 15 0 13 -22 15 -140 15 l-140 0 0 -275z"/>
<path d="M8410 4245 c0 -54 0 -55 -30 -55 -20 0 -30 -5 -30 -15 0 -10 10 -15
30 -15 l30 0 0 -161 c0 -206 10 -228 108 -229 40 0 52 4 52 15 0 11 -12 15
-44 15 -73 0 -76 7 -76 196 l0 164 60 0 c47 0 60 3 60 15 0 12 -13 15 -60 15
l-60 0 0 55 c0 48 -2 55 -20 55 -18 0 -20 -7 -20 -55z"/>
<path d="M12630 4245 c0 -54 0 -55 -30 -55 -20 0 -30 -5 -30 -15 0 -10 10 -15
29 -15 l30 0 3 -171 3 -171 28 -24 c34 -29 127 -36 127 -9 0 11 -12 15 -44 15
-73 0 -76 7 -76 196 l0 164 60 0 c47 0 60 3 60 15 0 12 -13 15 -60 15 l-60 0
0 55 c0 48 -2 55 -20 55 -18 0 -20 -7 -20 -55z"/>
<path d="M17848 4248 c-3 -52 -4 -53 -36 -56 -42 -4 -37 -26 6 -30 l32 -3 0
-160 c0 -212 8 -229 111 -229 37 0 49 4 49 15 0 11 -11 15 -42 15 -24 0 -49 4
-56 8 -23 15 -32 75 -32 214 l0 138 65 0 c50 0 65 3 65 15 0 10 -16 15 -62 17
l-63 3 -3 53 c-2 36 -7 52 -17 52 -10 0 -15 -16 -17 -52z"/>
<path d="M20010 4245 c0 -54 0 -55 -30 -55 -20 0 -30 -5 -30 -15 0 -10 10 -15
30 -15 l30 0 0 -142 c0 -215 16 -248 118 -248 68 0 67 24 -1 28 -72 5 -77 17
-77 204 l0 157 62 3 c38 2 63 8 66 16 3 9 -14 12 -62 12 l-66 0 0 55 c0 48 -2
55 -20 55 -18 0 -20 -7 -20 -55z"/>
<path d="M6235 4187 c-56 -22 -74 -37 -102 -85 -24 -40 -28 -58 -28 -122 0
-113 44 -178 139 -210 51 -17 137 -7 181 20 54 33 98 120 61 120 -7 0 -19 -14
-26 -31 -58 -139 -297 -102 -317 51 l-6 40 187 0 186 0 0 38 c0 45 -29 109
-61 139 -53 49 -146 66 -214 40z m145 -33 c48 -20 80 -61 87 -114 l6 -40 -168
0 -168 0 6 36 c17 104 130 161 237 118z"/>
<path d="M6871 4183 c-18 -9 -42 -31 -52 -47 l-19 -31 0 43 c0 35 -3 42 -20
42 -19 0 -20 -7 -20 -210 0 -203 1 -210 20 -210 19 0 20 7 20 138 0 113 4 144
20 179 24 55 70 83 133 83 40 0 53 -5 85 -34 l37 -34 3 -166 c3 -156 4 -166
23 -166 18 0 19 8 19 133 0 153 9 192 51 233 27 26 37 29 94 29 60 0 67 -3 97
-33 l33 -32 3 -165 c3 -158 4 -165 24 -165 19 0 20 5 16 158 -3 176 -13 206
-79 250 -29 20 -44 23 -96 20 -71 -4 -108 -26 -134 -76 l-17 -33 -20 36 c-12
19 -36 44 -54 55 -41 25 -120 26 -167 3z"/>
<path d="M7845 4181 c-23 -10 -53 -33 -68 -50 l-27 -33 0 46 c0 39 -3 46 -20
46 -20 0 -20 -5 -18 -312 3 -289 4 -313 21 -316 16 -3 17 9 17 150 l0 153 27
-34 c52 -66 157 -89 239 -52 90 41 139 150 114 259 -28 128 -167 197 -285 143z
m165 -34 c107 -56 123 -227 31 -310 -90 -81 -238 -45 -280 66 -15 40 -14 122
3 160 40 95 153 133 246 84z"/>
<path d="M8925 4185 c-22 -8 -57 -32 -77 -55 -122 -136 -30 -369 147 -370 134
0 218 85 218 220 0 163 -135 259 -288 205z m137 -25 c116 -32 158 -214 72
-309 -63 -71 -172 -79 -241 -18 -45 39 -63 82 -63 146 0 137 103 217 232 181z"/>
<path d="M9584 4186 c-17 -8 -40 -26 -52 -41 l-22 -28 0 37 c0 29 -4 36 -20
36 -19 0 -20 -7 -20 -210 0 -203 1 -210 20 -210 19 0 20 7 20 140 0 153 8 187
54 229 20 19 40 26 84 28 67 4 97 -9 129 -56 21 -32 23 -44 23 -187 0 -149 1
-154 21 -154 20 0 21 3 17 158 -3 176 -13 206 -78 249 -39 27 -125 31 -176 9z"/>
<path d="M11445 4187 c-56 -22 -74 -37 -102 -85 -24 -40 -28 -58 -28 -122 0
-102 31 -157 110 -196 48 -23 64 -26 115 -21 35 3 74 14 94 27 37 22 76 76 76
104 0 28 -24 17 -45 -21 -27 -49 -60 -72 -117 -79 -96 -13 -183 48 -195 136
l-6 40 187 0 186 0 0 38 c0 45 -29 109 -61 139 -53 49 -146 66 -214 40z m152
-37 c49 -22 83 -70 83 -117 l0 -33 -166 0 -167 0 6 36 c18 107 137 163 244
114z"/>
<path d="M12064 4175 c-27 -13 -59 -39 -71 -57 -56 -83 -51 -215 10 -285 99
-112 289 -90 342 40 14 34 14 37 -2 37 -10 0 -27 -16 -38 -37 -28 -51 -63 -73
-126 -79 -111 -11 -189 66 -189 185 0 121 76 197 188 188 62 -4 98 -28 127
-80 11 -21 28 -37 38 -37 16 0 16 3 2 38 -42 102 -171 142 -281 87z"/>
<path d="M13144 4186 c-17 -8 -40 -26 -52 -41 l-22 -28 0 37 c0 25 -4 36 -15
36 -13 0 -15 -30 -15 -210 0 -180 2 -210 15 -210 13 0 15 22 15 139 0 189 18
229 111 251 30 7 49 17 49 26 0 18 -45 18 -86 0z"/>
<path d="M13882 4187 c-74 -28 -132 -119 -132 -207 0 -49 29 -126 60 -157 89
-91 257 -79 319 21 12 18 21 41 21 50 0 28 -24 17 -45 -21 -28 -51 -63 -73
-126 -79 -111 -11 -189 66 -189 185 0 121 76 197 188 188 62 -4 98 -28 127
-80 21 -39 45 -49 45 -19 0 29 -36 78 -75 102 -44 27 -144 36 -193 17z"/>
<path d="M14525 4187 c-56 -22 -74 -37 -102 -85 -24 -40 -28 -58 -28 -122 0
-64 4 -82 27 -122 37 -62 83 -89 161 -95 52 -4 69 -1 107 19 25 14 55 39 68
58 l22 33 0 -52 c0 -44 3 -51 20 -51 19 0 20 7 20 210 0 203 -1 210 -20 210
-17 0 -20 -7 -20 -51 l0 -52 -23 34 c-44 66 -152 97 -232 66z m142 -32 c50
-21 72 -42 94 -90 33 -73 16 -180 -37 -227 -11 -10 -36 -24 -57 -33 -120 -50
-237 36 -237 174 0 141 116 226 237 176z"/>
<path d="M16635 4181 c-168 -76 -161 -341 11 -407 99 -38 216 5 262 96 28 57
30 156 3 215 -45 99 -172 143 -276 96z m146 -21 c96 -27 147 -163 100 -265
-22 -48 -44 -69 -94 -90 -120 -50 -237 36 -237 175 0 135 103 215 231 180z"/>
<path d="M17304 4186 c-17 -7 -40 -26 -52 -41 l-22 -28 0 37 c0 29 -4 36 -20
36 -19 0 -20 -7 -20 -210 0 -203 1 -210 20 -210 19 0 20 7 20 145 0 156 5 179
54 224 34 32 119 41 165 17 62 -32 71 -62 71 -233 0 -148 1 -153 21 -153 20 0
21 3 17 158 -3 172 -12 202 -71 245 -35 27 -138 34 -183 13z"/>
<path d="M18354 4181 c-18 -11 -39 -30 -48 -42 -16 -23 -16 -23 -16 14 0 30
-4 37 -20 37 -19 0 -20 -7 -20 -210 0 -201 1 -210 19 -210 18 0 20 10 23 161
l3 161 36 32 c23 21 50 35 77 40 28 4 42 11 42 21 0 22 -58 19 -96 -4z"/>
<path d="M18775 4181 c-78 -36 -115 -102 -115 -203 1 -101 41 -169 122 -203
78 -32 178 -9 231 54 l27 33 0 -46 c0 -39 3 -46 20 -46 19 0 20 7 20 210 0
203 -1 210 -20 210 -17 0 -20 -7 -20 -46 l0 -46 -27 33 c-55 65 -158 87 -238
50z m172 -32 c62 -30 93 -86 93 -169 0 -83 -31 -139 -93 -169 -102 -50 -217 0
-246 106 -47 170 96 305 246 232z"/>
<path d="M19455 4181 c-78 -36 -115 -102 -115 -203 0 -70 23 -129 61 -165 83
-76 231 -68 302 16 15 18 27 36 27 41 0 5 3 15 6 24 4 12 0 16 -15 16 -12 0
-21 -6 -21 -14 0 -23 -51 -78 -87 -92 -164 -69 -304 121 -211 287 38 68 134
98 211 65 36 -14 87 -69 87 -92 0 -8 9 -14 20 -14 24 0 24 1 6 43 -37 90 -172
134 -271 88z"/>
<path d="M20844 4186 c-17 -8 -40 -26 -52 -41 l-22 -28 0 37 c0 29 -4 36 -20
36 -19 0 -20 -7 -20 -210 0 -203 1 -210 20 -210 19 0 20 7 20 140 0 153 8 187
54 229 20 19 40 26 84 28 67 4 97 -9 129 -56 21 -32 23 -44 23 -187 0 -147 1
-154 20 -154 19 0 20 7 20 148 0 133 -2 152 -22 192 -32 63 -77 90 -147 90
-31 -1 -70 -7 -87 -14z"/>
<path d="M21485 4187 c-56 -22 -74 -37 -102 -85 -24 -40 -28 -58 -28 -122 0
-64 4 -82 27 -122 37 -62 83 -89 161 -95 51 -4 70 0 107 19 25 13 55 38 67 57
l23 34 0 -79 c0 -138 -54 -204 -165 -204 -63 0 -112 25 -144 73 -13 21 -30 37
-38 37 -40 0 20 -90 80 -119 51 -25 141 -28 190 -7 39 16 81 60 98 101 9 20
14 109 17 273 4 240 4 242 -17 242 -19 0 -21 -6 -21 -51 l0 -52 -23 34 c-44
66 -152 97 -232 66z m155 -39 c52 -27 86 -72 95 -128 15 -91 -21 -170 -95
-207 -125 -64 -250 20 -250 167 0 109 72 190 170 190 20 0 56 -10 80 -22z"/>
<path d="M13460 3980 c0 -203 1 -210 20 -210 19 0 20 7 20 210 0 203 -1 210
-20 210 -19 0 -20 -7 -20 -210z"/>
<path d="M20420 3980 c0 -180 2 -210 15 -210 13 0 15 30 15 210 0 180 -2 210
-15 210 -13 0 -15 -30 -15 -210z"/>
<path d="M18510 3185 l0 -196 103 3 c125 4 133 22 12 26 l-85 3 0 79 0 80 75
0 c60 0 75 3 75 15 0 12 -15 15 -75 15 l-75 0 0 70 0 70 85 0 c69 0 85 3 85
15 0 12 -18 15 -100 15 l-100 0 0 -195z"/>
<path d="M18890 3369 c-68 -27 -104 -89 -104 -184 -1 -121 48 -185 146 -192
60 -5 121 20 126 50 3 17 1 17 -37 -2 -72 -37 -145 -20 -178 42 -23 43 -23
150 0 197 33 68 110 89 176 49 35 -21 47 -20 37 6 -13 36 -111 56 -166 34z"/>
<path d="M19328 3351 c-27 -14 -48 -32 -48 -38 0 -18 10 -16 45 7 54 36 55 34
55 -140 l0 -160 -50 0 c-38 0 -50 -4 -50 -15 0 -12 19 -15 111 -15 84 0 110 3
107 13 -3 6 -23 13 -46 15 l-42 3 0 180 c0 204 3 198 -82 150z"/>
<path d="M19584 3367 c-3 -8 -4 -47 -2 -88 l3 -74 67 -6 c83 -7 108 -26 108
-80 0 -51 -8 -67 -41 -84 -35 -19 -86 -19 -119 0 -32 19 -40 18 -40 -1 0 -18
58 -44 99 -44 48 0 105 28 124 59 22 37 22 100 1 130 -21 30 -72 51 -124 51
l-40 0 0 60 0 60 80 0 c64 0 80 3 80 15 0 21 -188 22 -196 2z"/>
<path d="M19987 3328 c-95 -151 -127 -206 -127 -221 0 -15 13 -17 90 -17 l90
0 0 -50 c0 -38 4 -50 15 -50 11 0 15 12 15 50 0 49 1 50 30 50 20 0 30 5 30
15 0 10 -10 15 -30 15 l-30 0 0 130 0 130 -25 0 c-19 0 -32 -12 -58 -52z m53
-98 l0 -110 -70 0 c-38 0 -70 2 -70 4 0 8 131 216 136 216 2 0 4 -49 4 -110z"/>
<path d="M20297 3328 c-95 -151 -127 -206 -127 -221 0 -15 13 -17 90 -17 l90
0 0 -50 c0 -38 4 -50 15 -50 11 0 15 12 15 50 0 49 1 50 30 50 20 0 30 5 30
15 0 10 -10 15 -30 15 l-30 0 0 130 0 130 -25 0 c-19 0 -32 -12 -58 -52z m53
-98 l0 -110 -70 0 c-38 0 -70 2 -70 4 0 8 131 216 136 216 2 0 4 -49 4 -110z"/>
<path d="M20580 3360 c-54 -28 -73 -71 -78 -171 -5 -106 8 -153 52 -180 94
-57 211 27 190 137 -10 52 -46 79 -107 79 -29 0 -62 -4 -74 -8 -20 -7 -23 -5
-23 20 0 38 34 91 68 104 15 6 48 8 75 4 49 -6 63 6 28 25 -30 16 -92 11 -131
-10z m101 -179 c19 -15 24 -29 24 -66 0 -39 -5 -51 -28 -71 -66 -57 -131 -17
-138 86 -3 40 -1 45 26 56 44 19 89 17 116 -5z"/>
</g>
</svg>
